Input #0, mov,mp4,m4a,3gp,3g2,mj2, from 'renders/video.mp4':
  Metadata:
    major_brand     : isom
    minor_version   : 512
    compatible_brands: isomiso2avc1mp41
    encoder         : Lavf62.12.101
  Duration: 00:11:13.75, start: 0.000000, bitrate: 669 kb/s
  Stream #0:0[0x1](und): Video: h264 (High) (avc1 / 0x31637661), yuv420p(tv, bt709, progressive), 1920x1080 [SAR 1:1 DAR 16:9], 474 kb/s, 30 fps, 30 tbr, 15360 tbn (default)
    Metadata:
      handler_name    : VideoHandler
      encoder         : Lavc62.28.101 libx264
  Stream #0:1[0x2](und): Audio: aac (LC) (mp4a / 0x6134706D), 48000 Hz, stereo, fltp, 188 kb/s (default)
    Metadata:
      handler_name    : SoundHandler
Stream mapping:
  Stream #0:0 -> #0:0 (h264 (native) -> wrapped_avframe (native))
  Stream #0:1 -> #0:1 (aac (native) -> pcm_s16le (native))
Press [q] to stop, [?] for help
Output #0, null, to 'pipe:':
  Metadata:
    major_brand     : isom
    minor_version   : 512
    compatible_brands: isomiso2avc1mp41
    encoder         : Lavf62.12.101
  Stream #0:0(und): Video: wrapped_avframe, yuv420p(tv, bt709, progressive), 1920x1080 [SAR 1:1 DAR 16:9], q=2-31, 200 kb/s, 30 fps, 30 tbn (default)
    Metadata:
      encoder         : Lavc62.28.101 wrapped_avframe
      handler_name    : VideoHandler
  Stream #0:1(und): Audio: pcm_s16le, 48000 Hz, stereo, s16, 1536 kb/s (default)
    Metadata:
      encoder         : Lavc62.28.101 pcm_s16le
      handler_name    : SoundHandler
frame= 1422 fps=0.0 q=-0.0 size=N/A time=00:00:47.40 bitrate=N/A speed=93.9x elapsed=0:00:00.50frame= 3020 fps=2990 q=-0.0 size=N/A time=00:01:40.66 bitrate=N/A speed=99.7x elapsed=0:00:01.01frame= 4709 fps=3108 q=-0.0 size=N/A time=00:02:36.96 bitrate=N/A speed= 104x elapsed=0:00:01.51frame= 6165 fps=3051 q=-0.0 size=N/A time=00:03:25.50 bitrate=N/A speed= 102x elapsed=0:00:02.02frame= 7751 fps=3069 q=-0.0 size=N/A time=00:04:18.36 bitrate=N/A speed= 102x elapsed=0:00:02.52frame= 9327 fps=3078 q=-0.0 size=N/A time=00:05:10.90 bitrate=N/A speed= 103x elapsed=0:00:03.03frame=10963 fps=3101 q=-0.0 size=N/A time=00:06:05.40 bitrate=N/A speed= 103x elapsed=0:00:03.53frame=12495 fps=3092 q=-0.0 size=N/A time=00:06:56.50 bitrate=N/A speed= 103x elapsed=0:00:04.04frame=14010 fps=3082 q=-0.0 size=N/A time=00:07:47.00 bitrate=N/A speed= 103x elapsed=0:00:04.54frame=15556 fps=3081 q=-0.0 size=N/A time=00:08:38.53 bitrate=N/A speed= 103x elapsed=0:00:05.04frame=17180 fps=3093 q=-0.0 size=N/A time=00:09:32.66 bitrate=N/A speed= 103x elapsed=0:00:05.55frame=18893 fps=3118 q=-0.0 size=N/A time=00:10:29.76 bitrate=N/A speed= 104x elapsed=0:00:06.05[out#0/null @ 0xbfb054300] video:8369KiB audio:126328KiB subtitle:0KiB other streams:0KiB global headers:0KiB muxing overhead: unknown
frame=20212 fps=3136 q=-0.0 Lsize=N/A time=00:11:13.73 bitrate=N/A speed= 105x elapsed=0:00:06.44
